HIERARCHY
ROOT Hips
{
	OFFSET 0.000000 0.000000 0.000000
	CHANNELS 6 Xposition Yposition Zposition Zrotation Yrotation Xrotation 
	JOINT LeftUpLeg_virtual
	{
		OFFSET 0.000000 0.000000 0.000000
		CHANNELS 3 Zrotation Yrotation Xrotation
		JOINT LeftUpLeg
		{
			OFFSET 8.479694 -4.795517 -0.379053
			CHANNELS 3 Zrotation Yrotation Xrotation
			JOINT LeftLeg
			{
				OFFSET 0.485052 -32.551468 0.112863
				CHANNELS 3 Zrotation Yrotation Xrotation
				JOINT LeftFoot
				{
					OFFSET 0.438033 -32.635670 -3.012641
					CHANNELS 3 Zrotation Yrotation Xrotation
					JOINT LeftToeBase
					{
						OFFSET 0.970169 -13.225353 11.864223
						CHANNELS 3 Zrotation Yrotation Xrotation
						End Site
						{
							OFFSET 0.000000 0.000000 0.000000
						}
					}
				}
			}
		}
	}
	JOINT RightUpLeg_virtual
	{
		OFFSET 0.000000 0.000000 0.000000
		CHANNELS 3 Zrotation Yrotation Xrotation
		JOINT RightUpLeg
		{
			OFFSET -8.479694 -4.795517 -0.379053
			CHANNELS 3 Zrotation Yrotation Xrotation
			JOINT RightLeg
			{
				OFFSET -0.484100 -32.551483 0.112903
				CHANNELS 3 Zrotation Yrotation Xrotation
				JOINT RightFoot
				{
					OFFSET -0.438985 -32.635651 -3.012681
					CHANNELS 3 Zrotation Yrotation Xrotation
					JOINT RightToeBase
					{
						OFFSET -0.970169 -13.225354 11.864223
						CHANNELS 3 Zrotation Yrotation Xrotation
						End Site
						{
							OFFSET 0.000000 0.000000 0.000000
						}
					}
				}
			}
		}
	}
	JOINT Spine_virtual
	{
		OFFSET 0.000000 0.000000 0.000000
		CHANNELS 3 Zrotation Yrotation Xrotation
		JOINT Spine
		{
			OFFSET 0.000000 7.722015 1.166203
			CHANNELS 3 Zrotation Yrotation Xrotation
			JOINT Spine1
			{
				OFFSET 0.000000 12.024086 0.248766
				CHANNELS 3 Zrotation Yrotation Xrotation
				JOINT Spine2
				{
					OFFSET -0.000000 11.503036 -0.491240
					CHANNELS 3 Zrotation Yrotation Xrotation
					JOINT Neck_virtual
					{
						OFFSET 0.000000 0.000000 0.000000
						CHANNELS 3 Zrotation Yrotation Xrotation
						JOINT Neck
						{
							OFFSET 0.000000 18.430687 -3.123054
							CHANNELS 3 Zrotation Yrotation Xrotation
							JOINT Head
							{
								OFFSET -0.000000 9.051071 1.034021
								CHANNELS 3 Zrotation Yrotation Xrotation
								End Site
								{
									OFFSET 0.000000 0.000000 0.000000
								}
							}
						}
					}
					JOINT LeftShoulder_virtual
					{
						OFFSET 0.000000 0.000000 0.000000
						CHANNELS 3 Zrotation Yrotation Xrotation
						JOINT LeftShoulder
						{
							OFFSET 6.197824 13.665230 -4.064723
							CHANNELS 3 Zrotation Yrotation Xrotation
							JOINT LeftArm
							{
								OFFSET 7.778132 -0.187073 -1.709282
								CHANNELS 3 Zrotation Yrotation Xrotation
								JOINT LeftForeArm
								{
									OFFSET 21.954697 0.000000 -2.041093
									CHANNELS 3 Zrotation Yrotation Xrotation
									JOINT LeftHand
									{
										OFFSET 22.992908 0.000000 -0.870901
										CHANNELS 3 Zrotation Yrotation Xrotation
										End Site
										{
											OFFSET 0.000000 0.000000 0.000000
										}
									}
								}
							}
						}
					}
					JOINT RightShoulder_virtual
					{
						OFFSET 0.000000 0.000000 0.000000
						CHANNELS 3 Zrotation Yrotation Xrotation
						JOINT RightShoulder
						{
							OFFSET -6.197824 13.665230 -4.064723
							CHANNELS 3 Zrotation Yrotation Xrotation
							JOINT RightArm
							{
								OFFSET -7.778132 -0.187073 -1.709282
								CHANNELS 3 Zrotation Yrotation Xrotation
								JOINT RightForeArm
								{
									OFFSET -21.954697 0.000000 -2.041093
									CHANNELS 3 Zrotation Yrotation Xrotation
									JOINT RightHand
									{
										OFFSET -22.992908 0.000000 -0.870901
										CHANNELS 3 Zrotation Yrotation Xrotation
										End Site
										{
											OFFSET 0.000000 0.000000 0.000000
										}
									}
								}
							}
						}
					}
				}
			}
		}
	}
}
MOTION
Frames: 9
Frame Time: 0.033333
-23.450987 61.436317 -17.544321 -179.989691 -1.988358 -179.964597 4.671773 -4.026726 -8.289799 4.562652 0.832670 -46.672155 12.011510 1.724969 50.606019 -5.819630 -13.083037 -4.642525 0.000000 0.000000 0.000000 3.510366 -0.797484 -5.683059 -3.040888 -5.829727 -50.896193 -0.781234 2.976558 47.130303 6.963267 4.772403 7.976972 0.000000 0.000000 0.000000 4.671144 1.742413 -14.010967 -2.909810 -3.431056 4.375319 -3.001904 0.586078 14.614303 0.014690 -0.001282 0.027530 -3.310232 0.723051 14.731070 3.492213 0.226717 6.012595 0.000000 0.000000 0.000000 -1.607903 1.342809 11.052795 -7.479788 -13.272049 4.317801 -21.228761 -37.511337 8.027066 1.164308 -31.273749 9.930846 0.000000 0.000000 0.000000 -5.123272 2.455742 10.584759 19.210874 15.619574 6.243930 25.067672 26.584370 4.623845 -5.000684 31.124817 -1.455466 0.000000 0.000000 0.000000 
-23.425596 61.415695 -17.628120 179.985744 -1.766161 -179.950541 4.593044 -3.957489 -8.480546 4.303773 0.713307 -46.679541 11.973651 1.858079 48.447826 -5.795987 -13.462882 -4.584487 0.000000 0.000000 0.000000 3.406868 -0.753465 -5.693291 -3.029724 -5.188917 -50.576424 -0.725310 3.235661 44.815074 6.952887 4.415369 8.299887 0.000000 0.000000 0.000000 4.702999 1.903431 -14.167757 -2.856105 -3.520942 4.380336 -3.211482 0.567819 14.548079 0.012388 -0.004419 0.011342 -3.533257 0.718471 14.640669 3.236395 0.202018 6.022159 0.000000 0.000000 0.000000 -1.811180 1.227398 10.894050 -7.772271 -13.135363 4.556514 -21.089901 -36.807978 8.078199 1.238093 -31.815581 9.995955 0.000000 0.000000 0.000000 -5.342149 2.386510 10.475433 19.293281 15.549224 6.126977 25.180969 26.367675 4.843561 -4.769745 30.416212 -1.131508 0.000000 0.000000 0.000000 
-23.441931 61.374157 -17.667185 179.989391 -1.338757 -179.969597 4.474667 -3.702552 -8.652080 4.086988 0.629766 -46.722650 11.923709 1.909904 46.453558 -5.743471 -13.746585 -4.600229 0.000000 0.000000 0.000000 3.365345 -0.599557 -5.722173 -3.109198 -4.389849 -50.364101 -0.886685 3.268093 42.541437 7.087893 4.198851 8.643383 0.000000 0.000000 0.000000 4.699721 2.176864 -14.339270 -2.831599 -3.682650 4.559951 -3.416593 0.560363 14.534984 0.057880 -0.003712 0.008238 -3.743009 0.675560 14.638178 2.956759 0.218859 5.986543 0.000000 0.000000 0.000000 -2.006527 1.231721 10.800454 -8.090609 -13.047105 4.925715 -21.131318 -35.901913 8.112032 1.367208 -32.225837 10.033048 0.000000 0.000000 0.000000 -5.519405 2.413263 10.415698 19.337980 15.513863 6.284741 25.261917 26.394571 5.221164 -4.709780 29.787729 -0.976870 0.000000 0.000000 0.000000 
-23.488667 61.349571 -17.619732 -179.983845 -0.935387 -179.978094 4.386158 -3.421046 -8.726328 3.947741 0.673749 -46.846792 11.911349 1.960486 44.560598 -5.644741 -13.953517 -4.627969 0.000000 0.000000 0.000000 3.319129 -0.347001 -5.706636 -3.114054 -3.635912 -50.367191 -0.930225 3.411156 40.302662 7.186169 3.940827 8.985548 0.000000 0.000000 0.000000 4.614043 2.528383 -14.470217 -2.834515 -3.891674 4.785470 -3.486032 0.535226 14.575967 -0.022065 -0.008472 -0.013390 -3.787058 0.633537 14.718636 2.753071 0.187253 5.910908 0.000000 0.000000 0.000000 -2.042986 1.230670 10.830573 -8.344395 -13.056836 4.882979 -21.500283 -34.958271 8.348495 1.327544 -32.369868 10.262231 0.000000 0.000000 0.000000 -5.556913 2.359570 10.427090 19.424414 15.410951 6.378619 25.354717 26.467296 5.326027 -4.433503 29.288971 -0.619589 0.000000 0.000000 0.000000 
-23.502275 61.332489 -17.516886 179.990866 -0.654188 179.985006 4.283073 -3.163004 -8.687607 3.824009 0.726765 -47.039953 11.915527 2.135706 42.675080 -5.541726 -14.130881 -4.626649 0.000000 0.000000 0.000000 3.328108 -0.183833 -5.567535 -3.199853 -2.891558 -50.662723 -0.972544 3.539947 38.072328 7.273918 3.702330 9.345545 0.000000 0.000000 0.000000 4.462579 2.888888 -14.416699 -2.908822 -4.119129 4.950593 -3.500774 0.520175 14.608115 0.052357 0.002044 0.004199 -3.927975 0.621665 14.771691 2.613624 0.092579 5.769845 0.000000 0.000000 0.000000 -2.189596 1.156831 10.837046 -8.591688 -13.130362 4.871826 -21.935574 -34.327991 8.515993 1.229493 -32.221301 10.584445 0.000000 0.000000 0.000000 -5.698325 2.347891 10.366470 19.546060 15.270693 6.430658 25.534049 26.399299 5.477633 -4.389360 28.910036 -0.545505 0.000000 0.000000 0.000000 
-23.523916 61.328880 -17.409119 179.998735 -0.479038 179.957016 4.238369 -2.977223 -8.466646 3.534174 0.952060 -47.366734 11.823727 2.232168 40.778852 -5.405982 -14.210402 -4.624281 0.000000 0.000000 0.000000 3.469707 -0.009511 -5.264020 -3.234461 -2.245456 -51.322287 -1.010118 3.618062 35.790389 7.382503 3.530648 9.692456 0.000000 0.000000 0.000000 4.418783 3.107163 -14.133594 -2.994334 -4.349059 4.954198 -3.545428 0.511586 14.592429 0.012215 0.008088 0.006362 -3.866613 0.677238 14.854796 2.496476 0.036991 5.631041 0.000000 0.000000 0.000000 -2.148429 1.221538 10.894254 -8.800409 -13.225224 4.981076 -22.467793 -34.192610 8.919442 1.284503 -31.693915 10.631937 0.000000 0.000000 0.000000 -5.644045 2.396930 10.390377 19.682392 15.150881 6.582952 25.538410 26.143507 5.186287 -4.290989 28.521470 -0.453614 0.000000 0.000000 0.000000 
-23.531752 61.330845 -17.379883 -179.978012 -0.497148 -179.980307 4.261427 -2.909070 -8.140827 3.103028 1.291980 -47.793514 11.677580 2.368068 38.942153 -5.212172 -14.257066 -4.647172 0.000000 0.000000 0.000000 3.735624 0.085143 -4.837245 -3.199506 -1.722978 -52.307976 -1.040405 3.668891 33.545224 7.453619 3.435180 9.995258 0.000000 0.000000 0.000000 4.438834 3.151725 -13.699564 -3.046979 -4.472425 4.810752 -3.544551 0.502065 14.525635 -0.019115 -0.034216 0.024945 -3.843738 0.802452 14.941816 2.360610 0.020307 5.433314 0.000000 0.000000 0.000000 -2.096650 1.351470 10.920418 -8.908161 -13.227040 4.936216 -23.080029 -34.446037 9.415197 1.341429 -30.967804 10.671903 0.000000 0.000000 0.000000 -5.569453 2.494713 10.462725 19.796921 15.055841 6.610445 25.532685 25.646788 4.707745 -4.085976 28.196897 -0.268772 0.000000 0.000000 0.000000 
-23.498178 61.315083 -17.424395 179.999322 -0.621010 179.962999 4.323791 -2.923862 -7.649217 2.577709 1.648338 -48.201424 11.541619 2.654257 37.297993 -5.039301 -14.315966 -4.715303 0.000000 0.000000 0.000000 4.051332 0.076882 -4.297720 -3.067623 -1.297671 -53.346383 -1.067487 3.752632 31.492554 7.461216 3.384999 10.125074 0.000000 0.000000 0.000000 4.528867 3.171369 -13.045877 -3.067972 -4.463571 4.703373 -3.486841 0.568802 14.391820 -0.000876 -0.000620 0.041367 -3.806583 0.856065 15.065505 2.288292 -0.041488 5.137239 0.000000 0.000000 0.000000 -2.046971 1.353844 10.978036 -8.880702 -13.326910 4.815820 -23.690267 -34.767650 9.726509 1.346077 -30.239262 10.693706 0.000000 0.000000 0.000000 -5.515481 2.545686 10.504269 19.898137 14.885094 6.688900 25.520215 24.944148 4.434495 -4.059251 27.936556 -0.234698 0.000000 0.000000 0.000000 
-23.475834 61.288074 -17.505882 179.976987 -0.736971 179.996467 4.325089 -3.013769 -7.163431 1.995149 2.153517 -48.639338 11.419919 2.935654 35.972216 -4.784255 -14.487362 -4.868706 0.000000 0.000000 0.000000 4.292836 -0.081616 -3.854755 -2.908885 -0.810626 -54.333154 -1.072759 3.730429 29.713123 7.336038 3.360357 10.077602 0.000000 0.000000 0.000000 4.698239 3.057908 -12.483621 -3.050594 -4.404923 4.609626 -3.405390 0.612797 14.391081 0.014525 -0.006644 0.000162 -3.783021 0.909240 15.173216 2.193819 -0.016577 4.774771 0.000000 0.000000 0.000000 -2.014394 1.514282 11.008535 -8.691511 -13.217325 4.568373 -24.227362 -35.145647 9.785315 1.291182 -29.560816 10.684868 0.000000 0.000000 0.000000 -5.462664 2.680150 10.622091 19.852513 14.936712 6.661998 25.403162 24.407905 4.365254 -4.050878 27.785790 0.020476 0.000000 0.000000 0.000000 
